<?xml version="1.0" encoding="utf-8"?>
<!-- Generator: Adobe Illustrator 27.0.0, SVG Export Plug-In . SVG Version: 6.00 Build 0)  -->
<svg version="1.1" id="Layer_1" xmlns="http://www.w3.org/2000/svg" xmlns:xlink="http://www.w3.org/1999/xlink" x="0px" y="0px"
	 viewBox="0 0 128 128" style="enable-background:new 0 0 128 128;" xml:space="preserve">
<style type="text/css">
	.st0{fill:#4B8BC9;}
	.st1{fill:#FFFFFF;}
</style>
<g>
	<path class="st0" d="M126.33,45.76l-4.64-24.5L77.3,42.43L65.29,5.47L50.27,51.7H1.67l39.32,28.57l-2.31,7.13l-22.3,10.63
		l4.65,24.5l7.38-3.52l22.92-10.93l10.04-4.79l6.83-3.26l24.09-11.49l4.09-1.95l9.19-4.39l-6.93-8.5l-8.64-10.61l23.88-11.39
		L126.33,45.76z M95.71,75.83l4.15,5.09l-8.71,4.15l-61.22,29.2l-6.24,2.98l-3.26-17.17l16.7-7.96l51.74-24.68L95.71,75.83z
		 M53.83,76.34L42.85,62.86L78.43,45.9l40.6-19.37l3.26,17.16l-16.79,8.01L53.83,76.34z"/>
	<polygon class="st1" points="99.86,80.93 91.16,85.08 29.94,114.28 23.7,117.26 20.44,100.09 37.14,92.13 88.88,67.45 95.71,75.83 
			"/>
	<polygon class="st1" points="122.28,43.7 105.48,51.7 53.84,76.34 42.85,62.86 78.43,45.9 119.02,26.53 	"/>
</g>
</svg>
